<svg baseProfile="tiny" version="1.2" xmlns="http://www.w3.org/2000/svg"
    xmlns:cc="http://creativecommons.org/ns#" xmlns:dc="http://purl.org/dc/elements/1.1/"
    xmlns:freecad="https://www.freecad.org/wiki/index.php?title=Svg_Namespace"
    xmlns:inkscape="http://www.inkscape.org/namespaces/inkscape"
    xmlns:rdf="http://www.w3.org/1999/02/22-rdf-syntax-ns#"
    xmlns:sodipodi="http://sodipodi.sourceforge.net/DTD/sodipodi-0.dtd"
    xmlns:svg="http://www.w3.org/2000/svg" xmlns:xlink="http://www.w3.org/1999/xlink"
    viewBox="479.34 260.91 780.3 1117.12">
    <title>FreeCAD SVG Export</title>
    <desc>Drawing page: Page exported from FreeCAD document: Unnamed</desc>
    <defs />
    <g id="Page" inkscape:groupmode="layer" inkscape:label="TechDraw">
        <g id="Default_Template_A4_Landscape.svg" style="stroke: none;"
            transform="scale(10.000000, 10.000000)">
            <metadata id="metadata8">
                <rdf:rdf>
                    <cc:work rdf:about="">
                        <dc:format>image/svg+xml</dc:format>
                        <dc:type rdf:resource="http://purl.org/dc/dcmitype/StillImage" />
                    </cc:work>
                </rdf:rdf>
            </metadata>
        </g>
        <g fill="none" fill-rule="evenodd" id="DrawingContent" stroke="black"
            stroke-linecap="square" stroke-linejoin="bevel" stroke-width="1">
            <g fill="none" font-family="Sans" font-size="31.75" font-style="normal"
                font-weight="400" stroke="#000000" stroke-linecap="square" stroke-linejoin="bevel"
                stroke-opacity="1" stroke-width="1" transform="matrix(1,0,0,1,956.137,1374.53)">
                <rect height="0" width="0" x="0" y="0" />
            </g>
            <g fill="#f1f3f5" fill-opacity="0" font-family="Sans" font-size="31.75"
                font-style="normal" font-weight="400" stroke="none"
                transform="matrix(1,0,0,1,956.137,1374.53)">
                <path d="M-1.34558e-15,0 L-75,0 L-1.34558e-15,0 L75,0 L300,0 L75,0 L-1.34558e-15,0"
                    fill-rule="evenodd" vector-effect="non-scaling-stroke" />
            </g>
            <g fill="#f1f3f5" fill-opacity="0" font-family="Sans" font-size="31.75"
                font-style="normal" font-weight="400" stroke="none"
                transform="matrix(1,0,0,1,956.137,1374.53)">
                <path d="M-1.34558e-15,0 L-75,0 L-300,0 L-75,0 L-1.34558e-15,0" fill-rule="evenodd"
                    vector-effect="non-scaling-stroke" />
            </g>
            <g fill="none" font-family="Sans" font-size="31.75" font-style="normal"
                font-weight="400" stroke="#000000" stroke-linecap="round" stroke-linejoin="bevel"
                stroke-opacity="1" stroke-width="7" transform="matrix(1,0,0,1,956.137,1374.53)">
                <path d="M-75,0 L-300,0" fill-rule="evenodd" vector-effect="none" />
            </g>
            <g fill="none" font-family="Sans" font-size="31.75" font-style="normal"
                font-weight="400" stroke="#000000" stroke-linecap="round" stroke-linejoin="bevel"
                stroke-opacity="1" stroke-width="7" transform="matrix(1,0,0,1,956.137,1374.53)">
                <path d="M-2.69116e-15,0 L-75,0" fill-rule="evenodd" vector-effect="none" />
            </g>
            <g fill="none" font-family="Sans" font-size="31.75" font-style="normal"
                font-weight="400" stroke="#000000" stroke-linecap="round" stroke-linejoin="bevel"
                stroke-opacity="1" stroke-width="7" transform="matrix(1,0,0,1,956.137,1374.53)">
                <path d="M0,0 L75,0" fill-rule="evenodd" vector-effect="none" />
            </g>
            <g fill="none" font-family="Sans" font-size="31.75" font-style="normal"
                font-weight="400" stroke="#000000" stroke-linecap="round" stroke-linejoin="bevel"
                stroke-opacity="1" stroke-width="7" transform="matrix(1,0,0,1,956.137,1374.53)">
                <path d="M-75,0 L75,0" fill-rule="evenodd" vector-effect="none" />
            </g>
            <g fill="none" font-family="Sans" font-size="31.75" font-style="normal"
                font-weight="400" stroke="#000000" stroke-linecap="round" stroke-linejoin="bevel"
                stroke-opacity="1" stroke-width="7" transform="matrix(1,0,0,1,956.137,1374.53)">
                <path d="M75,0 L300,0" fill-rule="evenodd" vector-effect="none" />
            </g>
            <g fill="none" font-family="Sans" font-size="31.75" font-style="normal"
                font-weight="400" stroke="#000000" stroke-linecap="round" stroke-linejoin="bevel"
                stroke-opacity="1" stroke-width="7" transform="matrix(1,0,0,1,956.137,1374.53)">
                <path d="M-75,0 L-300,0" fill-rule="evenodd" vector-effect="none" />
            </g>
            <g fill="#f1f3f5" fill-opacity="0" font-family="Sans" font-size="31.75"
                font-style="normal" font-weight="400" stroke="none"
                transform="matrix(1,0,0,1,956.137,714.414)">
                <path d="M75,300 L75,450 L0,450 L75,300" fill-rule="evenodd"
                    vector-effect="non-scaling-stroke" />
            </g>
            <g fill="#f1f3f5" fill-opacity="0" font-family="Sans" font-size="31.75"
                font-style="normal" font-weight="400" stroke="none"
                transform="matrix(1,0,0,1,956.137,714.414)">
                <path d="M-75,-450 L-1.34558e-15,-450 L-75,-300 L-75,-450" fill-rule="evenodd"
                    vector-effect="non-scaling-stroke" />
            </g>
            <g fill="#f1f3f5" fill-opacity="0" font-family="Sans" font-size="31.75"
                font-style="normal" font-weight="400" stroke="none"
                transform="matrix(1,0,0,1,956.137,714.414)">
                <path
                    d="M-75,-450 L-1.34558e-15,-450 L300,-450 L-1.34558e-15,-450 L-75,-300 L-75,300 L-300,300 L-75,300 L-75,-300 L-75,-450"
                    fill-rule="evenodd" vector-effect="non-scaling-stroke" />
            </g>
            <g fill="#f1f3f5" fill-opacity="0" font-family="Sans" font-size="31.75"
                font-style="normal" font-weight="400" stroke="none"
                transform="matrix(1,0,0,1,956.137,714.414)">
                <path
                    d="M75,-300 L75,300 L75,450 L0,450 L-300,450 L0,450 L75,300 L75,-300 L300,-300 L75,-300"
                    fill-rule="evenodd" vector-effect="non-scaling-stroke" />
            </g>
            <g fill="none" font-family="Sans" font-size="31.75" font-style="normal"
                font-weight="400" stroke="#000000" stroke-linecap="round" stroke-linejoin="bevel"
                stroke-opacity="1" stroke-width="7" transform="matrix(1,0,0,1,956.137,714.414)">
                <path d="M-75,-450 L300,-450" fill-rule="evenodd" vector-effect="none" />
            </g>
            <g fill="none" font-family="Sans" font-size="31.75" font-style="normal"
                font-weight="400" stroke="#000000" stroke-linecap="round" stroke-linejoin="bevel"
                stroke-opacity="1" stroke-width="7" transform="matrix(1,0,0,1,956.137,714.414)">
                <path d="M-75,-450 L-75,300" fill-rule="evenodd" vector-effect="none" />
            </g>
            <g fill="none" font-family="Sans" font-size="31.75" font-style="normal"
                font-weight="400" stroke="#000000" stroke-linecap="round" stroke-linejoin="bevel"
                stroke-opacity="1" stroke-width="7" transform="matrix(1,0,0,1,956.137,714.414)">
                <path d="M-75,300 L-300,300" fill-rule="evenodd" vector-effect="none" />
            </g>
            <g fill="none" font-family="Sans" font-size="31.75" font-style="normal"
                font-weight="400" stroke="#000000" stroke-linecap="round" stroke-linejoin="bevel"
                stroke-opacity="1" stroke-width="7" transform="matrix(1,0,0,1,956.137,714.414)">
                <path d="M75,-300 L300,-300" fill-rule="evenodd" vector-effect="none" />
            </g>
            <g fill="none" font-family="Sans" font-size="31.75" font-style="normal"
                font-weight="400" stroke="#000000" stroke-linecap="round" stroke-linejoin="bevel"
                stroke-opacity="1" stroke-width="7" transform="matrix(1,0,0,1,956.137,714.414)">
                <path d="M75,-300 L75,450" fill-rule="evenodd" vector-effect="none" />
            </g>
            <g fill="none" font-family="Sans" font-size="31.75" font-style="normal"
                font-weight="400" stroke="#000000" stroke-linecap="round" stroke-linejoin="bevel"
                stroke-opacity="1" stroke-width="7" transform="matrix(1,0,0,1,956.137,714.414)">
                <path d="M75,450 L-300,450" fill-rule="evenodd" vector-effect="none" />
            </g>
            <g fill="none" font-family="Sans" font-size="31.75" font-style="normal"
                font-weight="400" stroke="#000000" stroke-linecap="round" stroke-linejoin="bevel"
                stroke-opacity="1" stroke-width="7" transform="matrix(1,0,0,1,956.137,714.414)">
                <path d="M-2.69116e-15,-450 L-75,-300" fill-rule="evenodd" vector-effect="none" />
            </g>
            <g fill="none" font-family="Sans" font-size="31.75" font-style="normal"
                font-weight="400" stroke="#000000" stroke-linecap="round" stroke-linejoin="bevel"
                stroke-opacity="1" stroke-width="7" transform="matrix(1,0,0,1,956.137,714.414)">
                <path d="M0,450 L75,300" fill-rule="evenodd" vector-effect="none" />
            </g>
            <g fill="none" font-family="Sans" font-size="31.75" font-style="normal"
                font-weight="400" stroke="#212529" stroke-linecap="square" stroke-linejoin="bevel"
                stroke-opacity="1" stroke-width="1" transform="matrix(1,0,0,1,925.027,856.776)">
                <text fill="#212529" fill-opacity="1" font-family="osifont" font-size="67"
                    font-style="normal" font-weight="400" stroke="none" x="4" xml:space="preserve"
                    y="92.2344">10</text>
            </g>
            <g fill="none" font-family="Sans" font-size="31.75" font-style="normal"
                font-weight="400" stroke="#212529" stroke-linecap="round" stroke-linejoin="bevel"
                stroke-opacity="1" stroke-width="3.5" transform="matrix(1,0,0,1,956.137,714.414)">
                <path d="M-75,251.863 L75,251.863 M75,450 L75,223.863 M-75,300 L-75,223.863"
                    fill-rule="evenodd" vector-effect="none" />
            </g>
            <g fill="#212529" fill-opacity="1" font-family="Sans" font-size="31.75"
                font-style="normal" font-weight="400" stroke="#212529" stroke-linecap="round"
                stroke-linejoin="bevel" stroke-opacity="1" stroke-width="3.5"
                transform="matrix(1,0,0,1,1031.14,966.276)">
                <path d="M0,0 L-35,-5.83333 L-35,5.83333 L0,0" fill-rule="evenodd"
                    vector-effect="none" />
            </g>
            <g fill="#212529" fill-opacity="1" font-family="Sans" font-size="31.75"
                font-style="normal" font-weight="400" stroke="#212529" stroke-linecap="round"
                stroke-linejoin="bevel" stroke-opacity="1" stroke-width="3.5"
                transform="matrix(1,0,0,1,881.137,966.276)">
                <path d="M0,0 L35,5.83333 L35,-5.83333 L0,0" fill-rule="evenodd"
                    vector-effect="none" />
            </g>
            <g fill="none" font-family="Sans" font-size="31.75" font-style="normal"
                font-weight="400" stroke="#212529" stroke-linecap="square" stroke-linejoin="bevel"
                stroke-opacity="1" stroke-width="1" transform="matrix(0,-1,1,0,447.106,1120.52)">
                <text fill="#212529" fill-opacity="1" font-family="osifont" font-size="67"
                    font-style="normal" font-weight="400" stroke="none" x="4" xml:space="preserve"
                    y="92.2344">10</text>
            </g>
            <g fill="none" font-family="Sans" font-size="31.75" font-style="normal"
                font-weight="400" stroke="#212529" stroke-linecap="round" stroke-linejoin="bevel"
                stroke-opacity="1" stroke-width="3.5" transform="matrix(1,0,0,1,956.137,714.414)">
                <path d="M-399.531,300 L-399.531,450 M-300,450 L-427.531,450 M-75,300 L-427.531,300"
                    fill-rule="evenodd" vector-effect="none" />
            </g>
            <g fill="#212529" fill-opacity="1" font-family="Sans" font-size="31.75"
                font-style="normal" font-weight="400" stroke="#212529" stroke-linecap="round"
                stroke-linejoin="bevel" stroke-opacity="1" stroke-width="3.5"
                transform="matrix(1,0,0,1,556.606,1164.41)">
                <path d="M0,0 L5.83333,-35 L-5.83333,-35 L0,0" fill-rule="evenodd"
                    vector-effect="none" />
            </g>
            <g fill="#212529" fill-opacity="1" font-family="Sans" font-size="31.75"
                font-style="normal" font-weight="400" stroke="#212529" stroke-linecap="round"
                stroke-linejoin="bevel" stroke-opacity="1" stroke-width="3.5"
                transform="matrix(1,0,0,1,556.606,1014.41)">
                <path d="M0,0 L-5.83333,35 L5.83333,35 L0,0" fill-rule="evenodd"
                    vector-effect="none" />
            </g>
        </g>
    </g>
</svg>